<?xml version="1.0" encoding="utf-8"?>
<!-- Generator: Adobe Illustrator 19.2.1, SVG Export Plug-In . SVG Version: 6.00 Build 0)  -->
<svg version="1.1" id="Layer_1" xmlns="http://www.w3.org/2000/svg" xmlns:xlink="http://www.w3.org/1999/xlink" x="0px" y="0px"
	 viewBox="0 0 1000 393" style="enable-background:new 0 0 1000 393;" xml:space="preserve">
<style type="text/css">
	.st0{fill:#000;}
</style>
<g>
	<polygon class="st0" points="946.1,83.9 757.2,83.9 757.2,143.8 816.8,143.8 816.8,311.3 886.5,311.3 886.5,143.8 946.1,143.8 	"/>
	<polygon class="st0" points="739.2,83.9 667.2,83.9 628,142.3 591.1,83.9 514.8,83.9 588.9,198.6 515.9,311.3 590.4,311.3 
		627,253.5 664.1,311.3 740.5,311.3 666,196.5 	"/>
	<polygon class="st0" points="205.7,194.8 205.8,196.7 128.2,83.9 62.9,83.9 62.9,311.3 128.5,311.3 128.5,191.6 210.5,311.3 
		271.3,311.3 271.3,83.9 205.7,83.9 	"/>
	<polygon class="st0" points="306.5,83.9 306.5,141.2 389.6,141.2 301.7,311.3 491.2,311.3 491.2,253.6 403.5,253.6 493.1,83.9 	"/>
</g>
</svg>
